<?xml version="1.0" encoding="UTF-8" standalone="no"?>
<!DOCTYPE svg PUBLIC "-//W3C//DTD SVG 1.1//EN" "http://www.w3.org/Graphics/SVG/1.1/DTD/svg11.dtd">
<svg width="100%" height="100%" viewBox="0 0 1200 512" version="1.1" xmlns="http://www.w3.org/2000/svg" xmlns:xlink="http://www.w3.org/1999/xlink" xml:space="preserve" xmlns:serif="http://www.serif.com/" style="fill-rule:evenodd;clip-rule:evenodd;stroke-linejoin:round;stroke-miterlimit:2;">
    <g transform="matrix(1,0,0,1,344,0)">
        <path d="M339.084,25.224L172.916,25.224C105.084,25.224 50.116,78.424 50.116,144.024C50.384,159.693 63.49,172.37 79.16,172.116L432.88,172.116C448.55,172.37 461.656,159.693 461.924,144.024C461.904,78.4 406.916,25.224 339.084,25.224Z" style="fill:rgb(239,152,59);fill-rule:nonzero;"/>
        <path d="M439.552,202.664C439.552,185.804 425.864,172.116 409.004,172.116L102.992,172.116C86.132,172.116 72.444,185.804 72.444,202.664L72.444,215.008C72.444,231.868 86.132,245.556 102.992,245.556L409.004,245.556C425.864,245.556 439.552,231.868 439.552,215.008L439.552,202.664Z" style="fill:rgb(140,63,7);"/>
        <path d="M432.86,339.884C448.53,339.63 461.636,352.307 461.904,367.976C461.904,433.576 406.916,486.776 339.104,486.776L172.916,486.776C105.084,486.776 50.116,433.576 50.116,367.976C50.384,352.307 63.49,339.63 79.16,339.884L432.86,339.884Z" style="fill:rgb(239,152,59);fill-rule:nonzero;"/>
        <path d="M401.376,245.556C401.376,245.556 445.448,250.92 486.776,298.828C410.364,287.556 333.238,281.815 256,281.648C178.762,281.815 101.636,287.556 25.224,298.828C66.552,250.92 110.624,245.556 110.624,245.556L401.376,245.556Z" style="fill:rgb(255,222,62);fill-rule:nonzero;"/>
        <path d="M199.752,245.556C199.752,245.556 273.856,272.192 322.552,317.744C322.552,317.744 345.212,264.144 355.236,245.556L199.752,245.556Z" style="fill:rgb(255,222,62);fill-rule:nonzero;"/>
        <path d="M337.228,283.904C329.404,301.568 322.56,317.744 322.56,317.744C307.656,304.144 291.408,292.092 274.068,281.776C268.092,281.7 262.068,281.648 256,281.648C194.769,281.845 133.598,285.468 72.772,292.5C72.553,293.987 72.444,295.489 72.444,296.992L72.444,309.34C72.446,326.097 86.235,339.884 102.992,339.884L408.992,339.884C425.749,339.884 439.538,326.097 439.54,309.34L439.54,296.992C439.54,295.49 439.431,293.99 439.212,292.504C413.08,289.496 377.732,286.088 337.228,283.904Z" style="fill:rgb(140,63,7);fill-rule:nonzero;"/>
        <g>
            <path d="M241.152,479.772L223.152,479.772C219.312,479.772 216.152,482.932 216.152,486.772C216.152,490.612 219.312,493.772 223.152,493.772L241.152,493.772C244.992,493.772 248.152,490.612 248.152,486.772C248.152,482.932 244.992,479.772 241.152,479.772Z" style="fill:rgb(66,32,2);fill-rule:nonzero;"/>
            <path d="M94.372,393.2C93.393,390.397 90.732,388.508 87.763,388.508C83.923,388.508 80.763,391.667 80.763,395.508C80.763,396.191 80.863,396.87 81.06,397.524C91.576,425.471 114.665,446.892 143.32,455.288C143.96,455.476 144.625,455.571 145.292,455.571C149.133,455.571 152.293,452.411 152.293,448.57C152.293,445.472 150.237,442.725 147.264,441.852C123.023,434.785 103.435,416.767 94.372,393.2Z" style="fill:rgb(66,32,2);fill-rule:nonzero;"/>
            <path d="M380.444,118.84C384.283,118.838 387.441,115.679 387.441,111.84C387.441,109.985 386.703,108.204 385.392,106.892L377.472,98.972C376.153,97.606 374.334,96.834 372.436,96.834C368.596,96.834 365.436,99.994 365.436,103.834C365.436,105.731 366.207,107.55 367.572,108.868L375.496,116.8C376.807,118.112 378.589,118.847 380.444,118.84Z" style="fill:rgb(66,32,2);fill-rule:nonzero;"/>
            <path d="M197.288,60.068L191.092,68.172C190.127,69.404 189.602,70.925 189.602,72.49C189.602,76.33 192.761,79.49 196.602,79.49C198.809,79.49 200.892,78.445 202.212,76.676L208.412,68.572C209.345,67.351 209.851,65.857 209.851,64.32C209.851,60.479 206.691,57.319 202.85,57.319C200.671,57.319 198.612,58.337 197.288,60.068Z" style="fill:rgb(66,32,2);fill-rule:nonzero;"/>
            <path d="M115.236,102.22C113.426,103.536 112.352,105.644 112.352,107.882C112.352,109.361 112.822,110.804 113.692,112L117.508,117.244C118.828,119.015 120.912,120.061 123.121,120.061C126.961,120.061 130.121,116.901 130.121,113.061C130.121,111.609 129.669,110.192 128.828,109.008L125.012,103.764C123.697,101.954 121.59,100.881 119.353,100.881C117.873,100.881 116.432,101.35 115.236,102.22Z" style="fill:rgb(66,32,2);fill-rule:nonzero;"/>
            <path d="M256,119.468C252.16,119.468 249,122.628 249,126.468C249,130.308 252.16,133.468 256,133.468L266.968,133.468C270.808,133.468 273.968,130.308 273.968,126.468C273.968,122.628 270.808,119.468 266.968,119.468L256,119.468Z" style="fill:rgb(66,32,2);fill-rule:nonzero;"/>
            <path d="M303.4,76.464C303.917,76.463 304.432,76.406 304.936,76.292L314.656,74.112C317.811,73.374 320.062,70.537 320.062,67.296C320.062,63.456 316.902,60.296 313.062,60.296C312.568,60.296 312.075,60.348 311.592,60.452L301.872,62.632C298.683,63.343 296.396,66.197 296.396,69.464C296.396,73.304 299.556,76.464 303.396,76.464C303.398,76.464 303.399,76.464 303.4,76.464Z" style="fill:rgb(66,32,2);fill-rule:nonzero;"/>
            <path d="M492.076,294.256C474.938,273.829 453.369,257.573 429.012,246.724C439.906,239.872 446.541,227.877 446.556,215.008L446.556,202.664C446.563,193.922 443.503,185.449 437.912,178.728C455.374,176.522 468.679,161.624 468.904,144.024C468.904,74.66 410.668,18.228 339.084,18.228L320.772,18.228C316.932,18.228 313.772,21.388 313.772,25.228C313.772,29.068 316.932,32.228 320.772,32.228L339.084,32.228C402.948,32.228 454.904,82.38 454.904,144.024C454.628,155.85 444.687,165.362 432.86,165.116L79.14,165.116C67.313,165.362 57.372,155.85 57.096,144.024C57.096,82.38 109.052,32.228 172.916,32.228L284.972,32.228C288.812,32.228 291.972,29.068 291.972,25.228C291.972,21.388 288.812,18.228 284.972,18.228L172.916,18.228C101.316,18.228 43.096,74.66 43.096,144.024C43.321,161.624 56.626,176.522 74.088,178.728C68.497,185.449 65.437,193.922 65.444,202.664L65.444,215.008C65.459,227.877 72.094,239.872 82.988,246.724C58.631,257.573 37.062,273.829 19.924,294.256C18.828,295.527 18.225,297.15 18.225,298.828C18.225,302.668 21.384,305.828 25.224,305.828C25.602,305.829 25.979,305.798 26.352,305.736C26.752,305.672 41.216,303.336 65.444,300.436L65.444,309.336C65.437,318.078 68.497,326.551 74.088,333.272C56.626,335.478 43.321,350.376 43.096,367.976C43.096,437.34 101.332,493.772 172.916,493.772L188.516,493.772C192.356,493.772 195.516,490.612 195.516,486.772C195.516,482.932 192.356,479.772 188.516,479.772L172.916,479.772C109.052,479.772 57.096,429.62 57.096,367.976C57.372,356.15 67.313,346.638 79.14,346.884L432.86,346.884C444.687,346.638 454.628,356.15 454.904,367.976C454.904,429.62 402.948,479.772 339.084,479.772L274.104,479.772C270.264,479.772 267.104,482.932 267.104,486.772C267.104,490.612 270.264,493.772 274.104,493.772L339.084,493.772C410.684,493.772 468.904,437.34 468.904,367.976C468.679,350.376 455.374,335.478 437.912,333.272C443.503,326.551 446.563,318.078 446.556,309.336L446.556,300.428C470.848,303.352 485.356,305.688 485.648,305.736C486.021,305.798 486.398,305.829 486.776,305.828C490.616,305.828 493.775,302.668 493.775,298.828C493.775,297.15 493.172,295.527 492.076,294.256ZM79.444,202.664C79.457,189.751 90.079,179.129 102.992,179.116L408.992,179.116C421.905,179.129 432.527,189.751 432.54,202.664L432.54,215.008C432.525,227.92 421.904,238.541 408.992,238.556L102.992,238.556C90.08,238.541 79.459,227.92 79.444,215.008L79.444,202.664ZM319.956,306C293.851,284.52 265.045,266.552 234.272,252.556L343.872,252.556C336,268.9 325.532,293.02 319.956,306ZM111.136,252.556L198.496,252.556C215.146,258.977 231.409,266.363 247.2,274.676C188.833,275.224 130.535,278.841 72.548,285.512C72.28,285.527 72.013,285.557 71.748,285.604C60.992,286.844 51.748,288.004 44.392,289C77.036,258.588 107.948,253.052 111.136,252.556ZM432.556,309.356C432.543,322.269 421.921,332.891 409.008,332.904L103.008,332.904C90.095,332.891 79.473,322.269 79.46,309.356L79.46,298.8C138.08,292.233 197.013,288.844 256,288.648C261.384,288.648 266.716,288.692 272,288.752C288.348,298.574 303.678,309.999 317.764,322.856C319.064,324.074 320.782,324.75 322.564,324.744C323.047,324.742 323.528,324.691 324,324.592C326.235,324.117 328.102,322.577 328.992,320.472C329.104,320.204 334.792,306.772 341.664,291.16C376.94,293.16 408.228,296.092 432.54,298.804L432.556,309.356ZM440,285.56C439.848,285.56 439.7,285.512 439.544,285.508C415.468,282.74 383.828,279.656 347.772,277.508C352,268.12 356.208,259.064 359.496,252.576L400.876,252.576C404.272,253.112 435.088,258.72 467.632,289.016C460.192,288 450.852,286.8 440,285.56Z" style="fill:rgb(66,32,2);fill-rule:nonzero;"/>
        </g>
    </g>
    <path d="M921.476,173.307L921.991,173.307L922.961,175.307L923.991,175.307L924.961,177.307L925.991,177.307L926.961,179.307L927.991,179.307L928.476,180.307L928.991,180.307L929.476,181.307L929.991,181.307L942.529,207.162L936.827,230.415L921.198,246.514L929.4,263.588L920.587,299.525L925.039,308.794L904.832,329.608L904.185,328.245L903.832,328.608L903.185,327.245L902.832,327.608L901.537,324.881L900.832,325.608L899.537,322.881L898.832,323.608L897.537,320.881L896.832,321.608L896.185,320.245L916.039,299.794L911.587,290.525L920.4,254.588L912.198,237.514L927.827,221.415L933.529,198.162L921.476,173.307ZM945.413,280.195L945.782,279.817L947.044,282.573L947.782,281.817L949.044,284.573L949.782,283.817L951.044,286.573L951.782,285.817L952.413,287.195L952.782,286.817L953.413,288.195L953.782,287.817L963.387,308.794L943.18,329.608L942.533,328.245L942.18,328.608L941.533,327.245L941.18,327.608L939.885,324.881L939.18,325.608L937.885,322.881L937.18,323.608L935.885,320.881L935.18,321.608L934.533,320.245L954.387,299.794L945.413,280.195ZM898.714,261.214L890.368,295.244L885.951,299.794L891.388,311.248L873.563,329.608L872.916,328.245L872.563,328.608L871.916,327.245L871.563,327.608L870.269,324.881L869.563,325.608L868.269,322.881L867.563,323.608L866.269,320.881L865.563,321.608L864.916,320.245L884.771,299.794L880.318,290.525L891.325,245.644L898.714,261.214ZM479.979,296.381L447.605,329.608L446.949,328.255L446.605,328.608L445.949,327.255L445.605,327.608L444.294,324.901L443.605,325.608L442.294,322.901L441.605,323.608L440.294,320.901L439.605,321.608L438.949,320.255L471.718,286.622L464.258,271.545L464.592,271.199L465.924,273.891L466.592,273.199L467.924,275.891L468.592,275.199L469.924,277.891L470.592,277.199L471.258,278.545L471.592,278.199L472.258,279.545L472.592,279.199L475.925,285.935L491.361,270.036L475.258,286.622L491.702,320.608L479.979,296.381ZM751.283,320.25L771.616,299.306L777.578,311.436L759.935,329.608L759.283,328.25L758.935,328.608L758.283,327.25L757.935,327.608L756.63,324.892L755.935,325.608L754.63,322.892L753.935,323.608L752.63,320.892L751.935,321.608L751.283,320.25ZM269.434,304.025L244.419,329.608L243.757,328.262L243.419,328.608L242.757,327.262L242.419,327.608L241.096,324.916L240.419,325.608L239.096,322.916L238.419,323.608L237.096,320.916L236.419,321.608L235.757,320.262L268.65,286.622L289.227,202.715L298.226,193.446L288.345,172.632L288.992,173.995L289.345,173.632L290.639,176.359L291.345,175.632L292.639,178.359L293.345,177.632L294.639,180.359L295.345,179.632L295.992,180.995L296.345,180.632L296.992,181.995L297.345,181.632L305.217,198.216L297.001,206.618L276.425,290.525L267.426,299.794L277.307,320.608L269.434,304.025ZM661.929,311.33L644.183,329.608L643.536,328.245L643.183,328.608L642.536,327.245L642.183,327.608L640.888,324.881L640.183,325.608L638.888,322.881L638.183,323.608L636.888,320.881L636.183,321.608L635.536,320.245L655.39,299.794L650.938,290.525L673.668,197.837L681.088,213.282L661.028,295.081L656.452,299.794L661.929,311.33ZM277.659,320.245L297.514,299.794L293.062,290.525L297.727,271.5L312.241,271.5L307.575,290.525L298.576,299.794L304.052,311.33L286.307,329.608L285.659,328.245L285.307,328.608L284.659,327.245L284.307,327.608L283.012,324.881L282.307,325.608L281.012,322.881L280.307,323.608L279.012,320.881L278.307,321.608L277.659,320.245ZM627.243,303.882L602.177,329.608L601.521,328.255L601.177,328.608L600.521,327.255L600.177,327.608L598.866,324.901L598.177,325.608L596.866,322.901L596.177,323.608L594.866,320.901L594.177,321.608L593.521,320.255L626.29,286.622L618.83,271.545L619.164,271.199L620.496,273.891L621.164,273.199L622.496,275.891L623.164,275.199L624.496,277.891L625.164,277.199L625.83,278.545L626.164,278.199L626.83,279.545L627.164,279.199L633.285,291.571L625.302,299.794L627.243,303.882ZM382.294,205.236L376.797,227.651L398.241,272.044L391.501,299.525L362.177,329.608L361.522,328.254L361.177,328.608L360.522,327.254L360.177,327.608L358.867,324.9L358.177,325.608L356.867,322.9L356.177,323.608L354.867,320.9L354.177,321.608L353.522,320.254L382.501,290.525L389.241,263.044L367.797,218.651L374.895,189.706L382.294,205.236ZM531.326,294.226L530.026,299.525L500.702,329.608L500.047,328.254L499.702,328.608L499.047,327.254L498.702,327.608L497.392,324.9L496.702,325.608L495.392,322.9L494.702,323.608L493.392,320.9L492.702,321.608L492.047,320.254L521.026,290.525L527.766,263.044L506.322,218.651L513.42,189.706L520.819,205.236L515.322,227.651L536.766,272.044L535.064,278.983L527.647,286.622L531.326,294.226ZM666.686,320.245L686.541,299.794L682.088,290.525L703.263,204.179L688.76,173.988L689.109,173.632L690.412,176.345L691.109,175.632L692.412,178.345L693.109,177.632L694.412,180.345L695.109,179.632L695.76,180.988L696.109,180.632L696.76,181.988L697.109,181.632L712.263,213.179L691.088,299.525L695.541,308.794L675.333,329.608L674.686,328.245L674.333,328.608L673.686,327.245L673.333,327.608L672.039,324.881L671.333,325.608L670.039,322.881L669.333,323.608L668.039,320.881L667.333,321.608L666.686,320.245ZM585.165,263.784L595.542,221.469L588.909,228.301L588.26,226.94L587.909,227.301L587.26,225.94L586.909,226.301L585.611,223.578L584.909,224.301L583.611,221.578L582.909,222.301L581.611,219.578L580.909,220.301L580.26,218.94L594.591,204.179L579.897,173.826L580.24,173.469L581.553,176.182L582.24,175.469L583.553,178.182L584.24,177.469L585.553,180.182L586.24,179.469L586.897,180.826L587.24,180.469L587.897,181.826L588.24,181.469L599.598,204.931L578.607,290.525L593.177,320.608L582.601,298.77L582.416,299.525L553.091,329.608L552.436,328.254L552.091,328.608L551.436,327.254L551.091,327.608L549.781,324.9L549.091,325.608L547.781,322.9L547.091,323.608L545.781,320.9L545.091,321.608L544.436,320.254L573.416,290.525L580.155,263.044L558.711,218.651L565.81,189.706L579.909,219.301L573.208,205.236L567.711,227.651L585.165,263.784ZM230.911,311.436L213.268,329.608L212.616,328.25L212.268,328.608L211.616,327.25L211.268,327.608L209.964,324.892L209.268,325.608L207.964,322.892L207.268,323.608L205.964,320.892L205.268,321.608L204.616,320.25L204.268,320.608L224.95,299.306L230.911,311.436ZM876.233,175.348L877.899,173.632L876.567,179.064L879.899,175.632L878.567,181.064L881.899,177.632L880.567,183.064L883.899,179.632L883.233,182.348L884.899,180.632L884.233,183.348L885.899,181.632L884.636,186.782L881.008,190.519L882.803,194.256L857.679,296.708L854.682,299.794L859.771,310.513L841.233,329.608L840.586,328.245L840.233,328.608L839.586,327.245L839.233,327.608L837.939,324.881L837.233,325.608L835.939,322.881L835.233,323.608L833.939,320.881L833.233,321.608L832.586,320.245L832.233,320.608L852.441,299.794L847.988,290.525L876.233,175.348ZM837.306,176.359L838.011,175.632L839.306,178.359L840.011,177.632L841.306,180.359L842.011,179.632L842.659,180.995L843.011,180.632L843.659,181.995L844.011,181.632L853.271,201.138L852.632,203.744L844.894,211.715L824.317,295.622L791.085,329.608L790.424,328.262L790.085,328.608L789.424,327.262L789.085,327.608L787.762,324.916L787.085,325.608L785.762,322.916L785.085,323.608L783.762,320.916L783.085,321.608L782.424,320.262L782.085,320.608L815.317,286.622L835.894,202.715L844.892,193.446L835.659,173.995L836.011,173.632L837.306,176.359ZM350.497,228.57L373.58,276.866L350.573,228.73L333.212,299.525L337.665,308.794L317.457,329.608L316.81,328.245L316.457,328.608L315.81,327.245L315.457,327.608L314.163,324.881L313.457,325.608L312.163,322.881L311.457,323.608L310.163,320.881L309.457,321.608L308.81,320.245L308.457,320.608L328.665,299.794L324.212,290.525L345.387,204.179L330.884,173.988L331.233,173.632L332.536,176.345L333.233,175.632L334.536,178.345L335.233,177.632L336.536,180.345L337.233,179.632L337.884,180.988L338.233,180.632L338.884,181.988L339.233,181.632L354.311,213.019L350.497,228.57ZM226.579,173.992L226.926,173.632L228.232,176.351L228.926,175.632L230.232,178.351L230.926,177.632L232.232,180.351L232.926,179.632L233.579,180.992L233.926,180.632L234.579,181.992L234.926,181.632L239.405,190.956L257.194,172.632L236.987,193.446L241.439,202.715L240.35,207.159L235.926,211.715L218.101,284.402L220.289,288.959L218.709,295.403L209.101,275.402L226.926,202.715L235.925,193.446L226.579,173.992ZM804.508,173.995L804.861,173.632L806.155,176.359L806.861,175.632L808.155,178.359L808.861,177.632L810.155,180.359L810.861,179.632L811.508,180.995L811.861,180.632L812.508,181.995L812.861,181.632L817.266,190.911L814.804,193.446L819.256,202.715L800.277,280.108L818.167,207.159L813.743,211.715L795.918,284.402L798.107,288.959L796.526,295.403L786.918,275.402L804.743,202.715L813.742,193.446L804.508,173.995ZM268.137,193.446L272.59,202.715L271.5,207.159L267.077,211.715L249.251,284.402L251.44,288.959L249.859,295.403L240.251,275.402L258.077,202.715L267.075,193.446L257.842,173.995L258.194,173.632L259.489,176.359L260.194,175.632L261.489,178.359L262.194,177.632L263.489,180.359L264.194,179.632L264.842,180.995L265.194,180.632L265.842,181.995L266.194,181.632L270.599,190.911L268.137,193.446ZM783.653,193.446L788.106,202.715L765.376,295.403L755.767,275.402L773.593,202.715L782.591,193.446L773.246,173.992L773.593,173.632L774.899,176.351L775.593,175.632L776.899,178.351L777.593,177.632L778.899,180.351L779.593,179.632L780.246,180.992L780.593,180.632L781.246,181.992L781.593,181.632L786.071,190.956L783.653,193.446ZM306.727,280.5L303.151,295.081L307.575,290.525L310.034,280.5L306.727,280.5ZM544.397,271.4L544.75,271.036L546.043,273.764L546.75,273.036L548.043,275.764L548.75,275.036L550.043,277.764L550.75,277.036L551.397,278.4L551.75,278.036L552.397,279.4L552.75,279.036L555.941,285.765L552.772,289.062L544.397,271.4ZM599.969,289.062L597.039,283.208L603.34,257.515L612.307,257.515L632.852,236.237L634.818,236.237L632.887,238.237L636.818,238.237L634.887,240.237L638.818,240.237L636.887,242.237L640.818,242.237L639.852,243.237L641.818,243.237L640.852,244.237L642.818,244.237L621.307,266.515L612.34,266.515L609.143,279.551L599.969,289.062ZM353.482,271.4L353.836,271.036L355.129,273.764L355.836,273.036L357.129,275.764L357.836,275.036L359.129,277.764L359.836,277.036L360.482,278.4L360.836,278.036L361.482,279.4L361.836,279.036L365.026,285.765L361.857,289.062L353.482,271.4ZM445.397,289.062L442.467,283.208L448.767,257.515L457.735,257.515L478.28,236.237L480.245,236.237L478.314,238.237L482.245,238.237L480.314,240.237L484.245,240.237L482.314,242.237L486.245,242.237L485.28,243.237L487.245,243.237L486.28,244.237L488.245,244.237L466.735,266.515L457.767,266.515L454.571,279.551L445.397,289.062ZM492.007,271.4L492.361,271.036L493.654,273.764L494.361,273.036L495.654,275.764L496.361,275.036L497.654,277.764L498.361,277.036L499.007,278.4L499.361,278.036L500.007,279.4L500.361,279.036L503.551,285.765L500.382,289.062L492.007,271.4ZM787.016,207.159L782.593,211.715L764.767,284.402L766.956,288.959L787.016,207.159ZM973.576,172.469L974.222,173.833L974.576,173.469L975.867,176.197L976.576,175.469L977.867,178.197L978.576,177.469L979.867,180.197L980.576,179.469L981.222,180.833L981.576,180.469L982.222,181.833L982.576,181.469L998.432,214.967L992.889,237.57L969.484,261.799L963.662,285.541L962.838,283.824L962.662,284.541L961.838,282.824L961.662,283.541L960.013,280.108L959.662,281.541L958.013,278.108L957.662,279.541L956.013,276.108L955.662,277.541L954.838,275.824L960.484,252.799L983.889,228.57L989.432,205.967L973.576,172.469ZM637.239,278.545L651.993,218.379L638.729,232.042L638.089,230.67L637.729,231.042L637.089,229.67L636.729,230.042L635.45,227.299L634.729,228.042L633.45,225.299L632.729,226.042L631.45,223.299L630.729,224.042L630.089,222.67L629.729,223.042L646.621,205.642L631.337,173.827L631.686,173.469L632.989,176.184L633.686,175.469L634.989,178.184L635.686,177.469L636.989,180.184L637.686,179.469L638.337,180.827L638.686,180.469L639.337,181.827L639.686,181.469L653.826,210.905L637.239,278.545ZM323.358,213.586L323.212,213.282L314.797,247.596L303.589,247.596L315.792,197.837L323.358,213.586ZM608.803,235.237L617.975,197.837L625.32,213.586L620.01,235.237L608.803,235.237ZM454.231,235.237L463.403,197.837L470.747,213.586L465.438,235.237L454.231,235.237ZM893.29,234.262L904.416,188.893L911.835,204.338L908.258,218.927L893.29,234.262ZM476.765,173.827L477.113,173.469L478.417,176.184L479.113,175.469L480.417,178.184L481.113,177.469L482.417,180.184L483.113,179.469L483.765,180.827L484.113,180.469L484.765,181.827L485.113,181.469L496.111,204.363L494.565,205.967L489.527,226.51L484.157,232.042L483.517,230.67L483.157,231.042L482.517,229.67L482.157,230.042L480.878,227.299L480.157,228.042L478.878,225.299L478.157,226.042L476.878,223.299L476.157,224.042L475.517,222.67L475.157,223.042L492.049,205.642L476.765,173.827ZM543.153,221.469L536.519,228.301L535.871,226.94L535.519,227.301L534.871,225.94L534.519,226.301L533.222,223.578L532.519,224.301L531.222,221.578L530.519,222.301L529.222,219.578L528.519,220.301L527.871,218.94L542.201,204.179L527.507,173.826L527.851,173.469L529.164,176.182L529.851,175.469L531.164,178.182L531.851,177.469L533.164,180.182L533.851,179.469L534.507,180.826L534.851,180.469L535.507,181.826L535.851,181.469L547.458,205.445L546.954,205.967L543.153,221.469ZM388.326,172.469L388.982,173.826L389.326,173.469L390.639,176.182L391.326,175.469L392.639,178.182L393.326,177.469L394.639,180.182L395.326,179.469L395.982,180.826L396.326,180.469L396.982,181.826L397.326,181.469L412.676,213.179L397.994,228.301L397.345,226.94L396.994,227.301L396.345,225.94L395.994,226.301L394.697,223.578L393.994,224.301L392.697,221.578L391.994,222.301L390.697,219.578L389.994,220.301L389.345,218.94L403.676,204.179L388.326,172.469ZM972.537,214.236L958.938,228.301L958.285,226.942L957.938,227.301L957.285,225.942L956.938,226.301L955.632,223.583L954.938,224.301L953.632,221.583L952.938,222.301L951.632,219.583L950.938,220.301L950.285,218.942L949.938,219.301L978.553,189.706L971.455,218.651L972.537,214.236ZM375.641,191.743L375.791,191.587L375.717,191.432L375.641,191.743ZM566.555,191.743L566.706,191.587L566.632,191.432L566.555,191.743ZM514.166,191.743L514.316,191.587L514.242,191.432L514.166,191.743Z" style="fill:url(#_Linear1);fill-rule:nonzero;stroke:black;stroke-width:4px;"/>
    <g transform="matrix(0.756217,0,0,1.04216,130.799,-23.9398)">
        <path d="M99.227,208.591L125.793,188.619L139.015,208.591L127.116,217.485L103.544,287.231L116.25,306.423L146.308,217.485L140.42,208.591L167.142,188.619L180.208,208.591L168.308,217.485L144.736,287.231L157.442,306.423L187.5,217.485L181.612,208.591L208.334,188.619L221.4,208.591L209.501,217.485L182.29,297.997L138.346,330.608L124.502,310.168L97.154,330.608L77.114,300.338L105.115,217.485L99.227,208.591ZM546.526,330.608L524.781,297.997L546.075,282.082L558.005,300.338L573.506,288.635L542.982,242.294L550.312,220.606L593.006,188.463L613.305,218.889L593.89,233.4L575.246,205.002L565.859,232.776L594.216,275.373L585.304,301.742L546.526,330.608ZM455.369,236.989L439.826,212.804L427.697,248.691L460.776,248.691L432.331,270.068L420.472,270.068L412.141,294.721L416.015,300.338L440.076,282.238L450.821,297.997L407.033,330.608L387.767,301.742L415.768,218.889L456.634,188.463L477.707,220.293L455.369,236.989ZM927.556,330.608L914.49,310.636L926.39,301.742L957.186,210.619L986.622,188.619L948.39,301.742L954.278,310.636L927.556,330.608ZM1062.37,330.608L1049.3,310.636L1076.39,290.508L1089.09,310.636L1062.37,330.608ZM234.93,330.608L221.864,310.636L233.763,301.742L239.933,283.486L220.741,283.486L214.572,301.742L220.46,310.636L193.738,330.608L180.671,310.636L192.571,301.742L219.781,221.23L263.725,188.619L283.765,218.889L255.764,301.742L261.652,310.636L234.93,330.608ZM294.066,330.608L272.321,297.997L293.615,282.082L305.545,300.338L321.046,288.635L290.522,242.294L297.852,220.606L340.546,188.463L360.845,218.889L341.43,233.4L322.786,205.002L313.399,232.776L341.756,275.373L332.844,301.742L294.066,330.608ZM708.175,330.608L695.109,310.636L707.009,301.742L730.58,231.996L717.875,212.804L687.817,301.742L693.705,310.636L666.983,330.608L653.917,310.636L665.816,301.742L693.027,221.23L736.971,188.619L757.011,218.889L729.009,301.742L734.897,310.636L708.175,330.608ZM477.248,330.608L455.502,297.997L476.796,282.082L488.726,300.338L504.228,288.635L473.704,242.294L481.034,220.606L523.728,188.463L544.027,218.889L524.612,233.4L505.967,205.002L496.581,232.776L524.937,275.373L516.025,301.742L477.248,330.608ZM1011.66,330.608L998.591,310.636L1010.49,301.742L1018.45,278.181L1005.7,258.677L991.143,301.742L997.031,310.636L970.309,330.608L957.243,310.636L969.143,301.742L998.357,215.3L992.056,205.782L1015.44,188.307L1044.93,188.307L1061.51,213.116L1053.97,235.429L1033.3,250.876L1044.15,267.259L1032.49,301.742L1038.38,310.636L1011.66,330.608ZM659.771,236.989L644.228,212.804L632.099,248.691L665.178,248.691L636.733,270.068L624.874,270.068L616.543,294.721L620.417,300.338L644.478,282.238L655.223,297.997L611.435,330.608L592.169,301.742L620.17,218.889L661.036,188.463L682.109,220.293L659.771,236.989ZM822.124,208.591L848.69,188.619L861.912,208.591L850.012,217.485L826.44,287.231L839.146,306.423L869.204,217.485L863.316,208.591L890.038,188.619L903.104,208.591L891.205,217.485L867.633,287.231L880.339,306.423L910.397,217.485L904.509,208.591L931.23,188.619L944.297,208.591L932.397,217.485L905.187,297.997L861.243,330.608L847.398,310.168L820.05,330.608L800.01,300.338L828.012,217.485L822.124,208.591ZM1097.15,265.543L1089.45,288.323L1076.23,268.351L1080.4,256.025L1111.66,232.776L1121.05,205.002L1083.21,233.4L1073.6,218.889L1114.46,188.463L1135.43,220.606L1128.1,242.294L1097.15,265.543ZM257.335,231.996L244.629,212.804L228.493,260.55L247.685,260.55L257.335,231.996ZM1023.01,204.222L1008.3,247.755L1037.47,226.067L1023.01,204.222Z" style="fill:rgb(137,0,40);fill-rule:nonzero;stroke:black;stroke-width:4.39px;"/>
    </g>
    <defs>
        <linearGradient id="_Linear1" x1="0" y1="0" x2="1" y2="0" gradientUnits="userSpaceOnUse" gradientTransform="matrix(-870,48,-48,-870,1030,239)"><stop offset="0" style="stop-color:rgb(255,153,161);stop-opacity:1"/><stop offset="0.49" style="stop-color:rgb(66,0,0);stop-opacity:1"/><stop offset="1" style="stop-color:rgb(255,102,102);stop-opacity:1"/></linearGradient>
    </defs>
</svg>
